PathFileType	4	(X/Y/Z)	..\data\2014031\dynamic\2014031_C4_02.trc
DataRate	CameraRate	NumFrames	NumMarkers	Units	OrigDataRate	OrigDataStartFrame	OrigNumFrames
100.000000	100.000000	4	52	mm	100.000000	106	170
Frame#	Time	L_IAS			L_IPS			R_IPS			R_IAS			L_FTC			L_FLE			L_FME			L_FAX			L_TTC			L_FAL			L_TAM			L_FCC			L_FM1			L_FM2			L_FM5			R_FTC			R_FLE			R_FME			R_FAX			R_TTC			R_FAL			R_TAM			R_FCC			R_FM1			R_FM2			R_FM5			CV7			TV10			SXS			SJN			L_SIA			L_SRS			L_SAA			L_SAE			L_HLE			L_HME			L_UOA			L_RSP			L_UHE			L_HM2			L_HM5			R_SIA			R_SRS			R_SAA			R_SAE			R_HLE			R_HME			R_UOA			R_RSP			R_UHE			R_HM2			R_HM5			
		X1	Y1	Z1	X2	Y2	Z2	X3	Y3	Z3	X4	Y4	Z4	X5	Y5	Z5	X6	Y6	Z6	X7	Y7	Z7	X8	Y8	Z8	X9	Y9	Z9	X10	Y10	Z10	X11	Y11	Z11	X12	Y12	Z12	X13	Y13	Z13	X14	Y14	Z14	X15	Y15	Z15	X16	Y16	Z16	X17	Y17	Z17	X18	Y18	Z18	X19	Y19	Z19	X20	Y20	Z20	X21	Y21	Z21	X22	Y22	Z22	X23	Y23	Z23	X24	Y24	Z24	X25	Y25	Z25	X26	Y26	Z26	X27	Y27	Z27	X28	Y28	Z28	X29	Y29	Z29	X30	Y30	Z30	X31	Y31	Z31	X32	Y32	Z32	X33	Y33	Z33	X34	Y34	Z34	X35	Y35	Z35	X36	Y36	Z36	X37	Y37	Z37	X38	Y38	Z38	X39	Y39	Z39	X40	Y40	Z40	X41	Y41	Z41	X42	Y42	Z42	X43	Y43	Z43	X44	Y44	Z44	X45	Y45	Z45	X46	Y46	Z46	X47	Y47	Z47	X48	Y48	Z48	X49	Y49	Z49	X50	Y50	Z50	X51	Y51	Z51	X52	Y52	Z52	

107	1.06	1016.414978027344	938.6390380859377	-318.7049255371094	819.4372558593752	962.161071777344	-275.1799011230469	810.1448364257815	967.5444335937502	-171.1559295654297	998.5427246093752	943.5695800781252	-92.51247406005861	930.0449218750002	856.126403808594	-402.0356445312501	1079.771606445313	468.5733947753907	-360.7717895507813	1085.63916015625	462.0138549804689	-227.8203582763672	1093.346923828125	410.2595825195314	-359.8118591308594	1154.967407226563	433.5454711914064	-304.3135070800782	1195.368286132813	75.74227905273439	-324.5867919921876	1221.858642578125	106.7930450439453	-238.5826721191407	1177.31787109375	14.11351680755616	-272.9776916503907	1355.42138671875	87.05420684814455	-248.7530212402344	1349.645263671875	99.64843750000003	-302.8205871582032	1318.989624023438	65.88040924072267	-346.2832336425782	905.3281250000002	857.3474731445315	-32.32618713378907	839.8580322265627	458.5037231445314	-91.3505096435547	839.9949340820315	454.6040039062501	-219.962631225586	816.2438964843752	398.2443847656251	-93.3863983154297	872.5620727539065	386.4726867675782	-151.5288391113282	685.5529785156251	79.0539016723633	-147.4317932128907	719.4362792968751	95.52891540527345	-233.8052673339844	640.5196533203126	32.9631690979004	-200.7863464355469	832.3657836914065	20.60682106018067	-206.8535461425782	837.7736816406252	34.72084426879884	-146.4965057373047	787.199157714844	19.72060585021973	-99.46765136718753	891.8918457031252	1489.791625976563	-203.8279113769532	803.0706176757815	1213.864379882813	-214.0789031982422	1027.768920898438	1202.756713867188	-216.5646514892579	1002.596496582031	1396.712280273438	-213.953109741211	794.7358398437502	1245.069702148438	-316.4018554687501	850.5245361328127	1399.723754882813	-342.7636413574219	897.3814697265627	1389.570068359375	-403.9032287597657	944.7495117187502	1388.026977539063	-407.9941711425782	841.0100708007815	1068.383911132813	-478.069061279297	806.311218261719	1054.594482421875	-400.3998107910157	799.9530029296877	1052.902709960938	-449.8567810058595	884.9393310546877	804.9285278320315	-440.3360900878907	850.2193603515627	816.3040161132815	-514.0314331054689	883.1214599609377	715.5289306640626	-449.8831176757814	818.0974731445315	745.9263916015626	-520.0350952148439	800.7435302734377	1244.04541015625	-106.2951354980469	852.3468017578127	1399.659912109375	-80.12864685058595	912.762390136719	1393.962036132813	-21.96087074279786	958.0765380859377	1383.4833984375	-11.98938751220703	979.4675903320315	1051.27685546875	70.06179046630861	944.4334106445315	1023.347595214844	-3.671695947647096	944.1904296875002	1009.361511230469	39.10815429687501	1183.7275390625	905.671325683594	1.725074768066407	1155.199340820313	866.7415161132815	64.63179779052736	1259.21630859375	850.4761962890627	-3.926098585128785	1200.111572265625	795.145690917969	57.05617141723634	
108	1.07	1029.131958007813	937.074890136719	-318.7539978027344	831.8460693359377	960.159362792969	-276.0838012695313	822.238952636719	965.3624267578127	-172.232650756836	1010.010986328125	941.6683349609377	-92.22380828857423	943.063415527344	854.584411621094	-402.4555664062501	1092.907592773438	467.2786865234376	-360.4069213867188	1097.924926757813	460.6159973144532	-227.4846191406251	1106.503173828125	408.8992309570314	-359.4530639648438	1167.65771484375	432.593719482422	-303.5421447753907	1209.501831054688	75.0746307373047	-323.8960571289063	1235.44091796875	106.1813583374024	-237.7344055175782	1190.9912109375	13.90589618682862	-272.3783569335938	1368.906860351563	86.1856155395508	-247.1069793701172	1363.446655273438	98.68069458007815	-301.2219848632813	1333.020141601563	64.93480682373048	-344.7098388671876	916.4323730468752	855.5996704101565	-32.79159545898438	848.6164550781252	457.5570068359376	-92.02646636962892	849.903747558594	453.6394653320314	-220.6119079589844	823.9644165039065	397.6488342285157	-94.05377197265626	880.4538574218752	384.656951904297	-151.9284057617188	686.5481567382814	81.10604095458986	-147.5702362060547	720.7581787109376	97.06497955322268	-233.8564910888672	640.7405395507814	35.69495010375977	-201.0462188720704	832.7272949218752	20.637113571167	-206.5527038574219	838.1133422851565	34.92040252685548	-146.1569519042969	787.2844238281252	19.7900390625	-99.4992370605469	903.9387207031252	1488.092163085938	-205.1584014892579	814.4652099609377	1212.404541015625	-215.0126037597657	1039.465454101563	1200.666137695313	-216.8402557373047	1014.553588867188	1394.833740234375	-214.8079833984376	806.7304687500002	1243.002807617188	-317.2810974121094	862.7028808593752	1397.592895507813	-343.8837280273438	909.6400146484377	1387.2431640625	-404.9493408203126	957.0202636718752	1385.62646484375	-408.9824523925782	851.492370605469	1066.462036132813	-478.4913330078126	817.118347167969	1052.825805664063	-400.6950073242189	810.6255493164065	1051.213989257813	-450.0849914550782	893.964538574219	802.7453613281252	-441.4207153320314	858.7427978515627	814.4312133789065	-514.8632812500001	892.0320434570315	713.5055541992189	-451.4086914062501	826.1972656250002	744.1430053710939	-520.7130737304689	812.2727661132815	1242.479614257813	-107.4458541870117	863.9418945312502	1398.2236328125	-81.25872039794923	924.2148437500002	1392.6318359375	-23.04948043823243	969.6453247070315	1382.070922851563	-12.92325973510743	992.0576171875002	1050.210083007813	69.9541702270508	956.984802246094	1021.835998535156	-3.685810327529908	957.1549072265627	1007.806640625	39.1388168334961	1197.96923828125	907.5935058593752	0.797856390476227	1170.030883789063	867.9453125000002	63.64505004882814	1274.390747070313	853.785339355469	-4.912304878234864	1216.259643554688	797.1512451171877	55.8082847595215	
109	1.08	1041.908325195313	935.779724121094	-318.9733886718751	844.3283691406252	958.3677368164065	-276.9050903320313	834.5272216796877	963.3271484375002	-173.2333374023438	1021.703735351563	939.8731689453127	-92.11067962646486	956.2437744140627	853.3826904296877	-402.9780578613282	1106.582763671875	466.423797607422	-360.1168823242188	1110.610717773438	459.6898803710939	-227.311752319336	1119.814819335938	407.8966674804689	-359.2105102539063	1180.505126953125	431.6092224121095	-302.8029174804688	1220.890380859375	74.20452880859376	-323.2622985839844	1246.427734375	105.0488815307617	-236.8771209716797	1201.293823242188	13.83189105987549	-271.8705139160157	1379.516723632813	83.59364318847658	-245.3989868164063	1374.50732421875	96.07022857666018	-299.5895996093751	1344.086181640625	62.69940185546876	-343.1305847167969	927.8159179687502	853.9263916015627	-33.34016799926759	857.8424072265627	456.7107849121095	-92.69570159912111	860.1972656250002	452.691619873047	-221.2339019775391	832.1125488281252	397.186248779297	-94.68004608154298	888.7564697265627	382.8445129394532	-152.2811584472657	687.6722412109376	83.55639648437501	-147.5531921386719	722.2451782226564	98.89790344238284	-233.7427062988282	640.9888305664064	38.95957565307618	-201.1498413085938	833.0393066406252	20.57344627380371	-206.2738647460938	838.421813964844	35.06624984741212	-145.8537902832032	787.313415527344	19.73031425476075	-99.54985809326175	916.0482177734377	1486.564575195313	-206.5345001220704	825.8978271484377	1211.121459960938	-215.9422912597657	1051.174926757813	1198.798706054688	-217.2286529541016	1026.560180664063	1393.177001953125	-215.7558898925782	818.8162231445315	1241.075439453125	-318.1958923339844	874.9125976562502	1395.623657226563	-345.0845031738282	921.9349365234377	1385.08203125	-406.0859985351564	969.3245849609377	1383.4169921875	-410.0346069335939	862.4492187500002	1064.579345703125	-478.9456176757814	828.393005371094	1051.07666015625	-401.0668334960939	821.7881469726565	1049.539184570313	-450.3894042968751	903.6522216796877	800.6490478515627	-442.4713134765626	868.0462036132815	812.634704589844	-515.7058105468751	901.706726074219	711.5854492187501	-452.904266357422	835.1526489257815	742.4201660156251	-521.4859619140626	823.937927246094	1241.027587890625	-108.66552734375	875.6743164062502	1396.898315429688	-82.46772766113283	935.7427368164065	1391.447998046875	-24.20418357849122	981.2856445312502	1380.806884765625	-13.92601490020752	1004.403747558594	1049.239013671875	69.7171096801758	969.3376464843752	1020.477233886719	-3.854216098785401	969.8471679687502	1006.416931152344	39.01080703735352	1211.734741210938	909.2219238281252	-0.0971159562468529	1184.275512695313	868.945983886719	62.67571258544923	1288.921020507813	856.6347656250002	-5.870046615600587	1231.65380859375	798.8648071289065	54.60384368896486	
110	1.09	1054.75048828125	934.808532714844	-319.3715209960938	856.892761230469	956.8394165039065	-277.6436462402344	847.0135498046877	961.494323730469	-174.1468200683594	1033.670532226563	938.2464599609377	-92.20733642578126	969.5718994140627	852.5579223632815	-403.6098937988282	1120.677612304688	465.9840087890626	-359.9123840332032	1123.592407226563	459.208709716797	-227.2953796386719	1133.231567382813	407.2420654296876	-359.0870666503907	1193.447265625	430.6120605468751	-302.1037597656251	1229.864624023438	73.14420318603517	-322.7149353027344	1255.122680664063	103.4491195678711	-236.0381622314454	1208.624267578125	13.85747718811036	-271.4899291992188	1387.604858398438	79.46129608154298	-243.6531524658204	1383.18603515625	91.99545288085939	-297.9551086425782	1352.567138671875	59.32753753662111	-341.6051330566407	939.5081787109377	852.3620605468752	-33.97395706176759	867.5767211914065	455.9847412109376	-93.33050537109376	870.9296875000002	451.7561645507814	-221.7971801757813	840.7275390625002	396.8847656250001	-95.23321533203126	897.5161743164065	381.0539550781251	-152.5286407470703	688.9879760742189	86.46417236328126	-147.3787231445313	723.9883422851564	101.0595092773438	-233.4466857910157	641.3543090820314	42.8491554260254	-201.1066131591797	833.267272949219	20.39654541015625	-206.054672241211	838.6579589843752	35.12758255004884	-145.62548828125	787.242126464844	19.52716064453125	-99.65318298339847	928.202575683594	1485.25390625	-207.9515991210938	837.3920898437502	1210.041381835938	-216.8662567138672	1062.909912109375	1197.21142578125	-217.7339172363282	1038.608642578125	1391.792236328125	-216.7961578369141	830.9934692382815	1239.32958984375	-319.1362609863282	887.142517089844	1393.861328125	-346.3571166992188	934.2512207031252	1383.130249023438	-407.3060607910157	981.6491699218752	1381.448364257813	-411.1480407714845	873.8867187500002	1062.771606445313	-479.4231262207032	840.1368408203127	1049.384887695313	-401.5033264160157	833.443298339844	1047.914184570313	-450.7596740722657	914.0184326171877	798.6760253906252	-443.4707641601564	878.1561279296877	810.9453125000002	-516.5473022460939	912.1303710937502	709.7953491210939	-454.3348083496095	844.9892578125002	740.7946166992189	-522.3463745117189	835.7479248046877	1239.728515625	-109.9396896362305	887.540710449219	1395.7275390625	-83.74458312988283	947.361022949219	1390.451049804688	-25.41441154479981	993.0102539062502	1379.736328125	-14.99424266815186	1016.496643066406	1048.400390625	69.34156036376955	981.4844970703127	1019.313354492188	-4.188671112060548	982.2471313476565	1005.234252929688	38.71135711669923	1225.010864257813	910.5508422851565	-0.9542208909988406	1197.910888671875	869.7371826171877	61.7234230041504	1302.803344726563	859.0059204101565	-6.779703617095949	1246.262573242188	800.264587402344	53.44878387451173	
